<?xml version="1.0" encoding="utf-8"?>
<!-- Generator: Adobe Illustrator 24.0.0, SVG Export Plug-In . SVG Version: 6.00 Build 0)  -->
<svg version="1.1" id="Layer_1" xmlns="http://www.w3.org/2000/svg" xmlns:xlink="http://www.w3.org/1999/xlink" x="0px" y="0px"
	 viewBox="0 0 28 28" style="enable-background:new 0 0 28 28;" xml:space="preserve">
<style type="text/css">
	.st0{fill:#151515;}
</style>
<g>
	<path class="st0" d="M24.5,11.27c0.2,0.2,0.3,0.44,0.3,0.72s-0.1,0.52-0.3,0.72l-5.23,5.27c-0.23,0.2-0.47,0.3-0.74,0.3
		s-0.5-0.1-0.7-0.3l-0.97-0.97c-0.2-0.2-0.3-0.44-0.3-0.72s0.1-0.52,0.3-0.72l0.25-0.21l-1.69-1.69l-3.42,3.42l0.25,0.25
		c0.25,0.25,0.38,0.57,0.38,0.95c0,0.38-0.13,0.7-0.38,0.95l-4.85,4.85c-0.25,0.25-0.57,0.38-0.95,0.38c-0.38,0-0.7-0.13-0.95-0.38
		l-1.94-1.94C3.33,21.9,3.2,21.58,3.2,21.2s0.13-0.7,0.38-0.95l4.85-4.85c0.25-0.25,0.57-0.38,0.95-0.38c0.38,0,0.7,0.13,0.95,0.38
		l0.25,0.25L14,12.24l-1.69-1.69l-0.21,0.25c-0.2,0.2-0.44,0.3-0.72,0.3s-0.52-0.1-0.72-0.3L9.7,9.83c-0.2-0.2-0.3-0.43-0.3-0.7
		S9.5,8.63,9.7,8.4l5.27-5.23c0.2-0.2,0.44-0.3,0.72-0.3s0.52,0.1,0.72,0.3l0.93,0.97c0.2,0.2,0.3,0.44,0.3,0.72s-0.1,0.52-0.3,0.72
		l-0.21,0.21l4.77,4.77l0.21-0.21c0.2-0.2,0.44-0.3,0.72-0.3s0.52,0.1,0.72,0.3L24.5,11.27z"/>
</g>
</svg>
