<?xml version="1.0" encoding="utf-8"?>
<!-- Generator: Adobe Illustrator 24.0.0, SVG Export Plug-In . SVG Version: 6.00 Build 0)  -->
<svg version="1.1" id="Layer_1" xmlns="http://www.w3.org/2000/svg" xmlns:xlink="http://www.w3.org/1999/xlink" x="0px" y="0px"
	 viewBox="0 0 28 28" style="enable-background:new 0 0 28 28;" xml:space="preserve">
<style type="text/css">
	.st0{fill:#151515;}
</style>
<g>
	<path class="st0" d="M22.29,17.4c-0.9,1.97-2.11,3.69-3.61,5.17c-1.26,1.23-2.57,2.12-3.94,2.67c-0.49,0.22-0.98,0.22-1.48,0
		c-1.56-0.63-2.99-1.64-4.31-3.04c-1.45-1.5-2.58-3.27-3.4-5.29c-0.93-2.27-1.39-4.69-1.39-7.26c0-0.41,0.11-0.78,0.33-1.11
		S5,7.98,5.39,7.84l7.88-3.28c0.49-0.22,0.98-0.22,1.48,0l7.88,3.28c0.38,0.14,0.68,0.37,0.9,0.7s0.33,0.7,0.33,1.11
		C23.84,12.46,23.32,15.05,22.29,17.4z M19,18.01c1.42-2.32,2.16-4.96,2.21-7.92L14,7.06v15.63C16.05,21.68,17.72,20.12,19,18.01z"
		/>
</g>
</svg>
