<?xml version="1.0" encoding="utf-8"?>
<!-- Generator: Adobe Illustrator 24.0.0, SVG Export Plug-In . SVG Version: 6.00 Build 0)  -->
<svg version="1.1" id="Layer_1" xmlns="http://www.w3.org/2000/svg" xmlns:xlink="http://www.w3.org/1999/xlink" x="0px" y="0px"
	 viewBox="0 0 28 28" style="enable-background:new 0 0 28 28;" xml:space="preserve">
<style type="text/css">
	.st0{fill:#151515;}
</style>
<path class="st0" d="M25.42,14.53c0-0.32-0.19-0.61-0.49-0.74l-3.02-1.26l3.02-1.26c0.3-0.12,0.49-0.42,0.49-0.74
	c0-0.32-0.19-0.61-0.49-0.74l-10.7-4.47c-0.2-0.08-0.42-0.08-0.62,0L2.91,9.79c-0.3,0.12-0.49,0.42-0.49,0.74
	c0,0.32,0.19,0.61,0.49,0.74l3.02,1.26l-3.02,1.26c-0.3,0.12-0.49,0.42-0.49,0.74c0,0.32,0.19,0.61,0.49,0.74l3.02,1.26l-3.02,1.26
	c-0.3,0.12-0.49,0.42-0.49,0.74c0,0.32,0.19,0.61,0.49,0.74l10.7,4.47c0.1,0.04,0.2,0.06,0.31,0.06s0.21-0.02,0.31-0.06l10.7-4.47
	c0.3-0.12,0.49-0.42,0.49-0.74c0-0.32-0.19-0.61-0.49-0.74l-3.02-1.26l3.02-1.26C25.23,15.14,25.42,14.85,25.42,14.53z M13.92,6.92
	l8.63,3.61l-3.02,1.26c0,0,0,0,0,0l-5.61,2.34l-5.61-2.34c0,0,0,0,0,0l-3.02-1.26L13.92,6.92z M22.55,18.53l-8.63,3.61l-8.63-3.61
	L8,17.4l5.61,2.34c0.1,0.04,0.2,0.06,0.31,0.06s0.21-0.02,0.31-0.06l5.61-2.34L22.55,18.53z M19.53,15.79
	C19.53,15.79,19.53,15.79,19.53,15.79l-5.61,2.34l-5.61-2.34c0,0,0,0,0,0l-3.02-1.26L8,13.4l5.61,2.34c0.1,0.04,0.2,0.06,0.31,0.06
	s0.21-0.02,0.31-0.06l5.61-2.34l2.71,1.13L19.53,15.79z"/>
</svg>
