<?xml version="1.0" encoding="utf-8"?>
<!-- Generator: Adobe Illustrator 24.0.0, SVG Export Plug-In . SVG Version: 6.00 Build 0)  -->
<svg version="1.1" id="Layer_1" xmlns="http://www.w3.org/2000/svg" xmlns:xlink="http://www.w3.org/1999/xlink" x="0px" y="0px"
	 viewBox="0 0 24 24" style="enable-background:new 0 0 24 24;" xml:space="preserve">
<style type="text/css">
	.st0{fill:#FFFFFF;}
</style>
<g>
	<path class="st0" d="M1.69,2.61c-0.28,0-0.5,0.22-0.5,0.5v17.91c0,0.28,0.22,0.5,0.5,0.5s0.5-0.22,0.5-0.5V3.11
		C2.19,2.84,1.96,2.61,1.69,2.61z"/>
	<path class="st0" d="M21.51,11.57H8.81l5.52-5.52c0.2-0.2,0.2-0.51,0-0.71s-0.51-0.2-0.71,0l-6.37,6.37
		c-0.07,0.07-0.1,0.15-0.12,0.23C7.12,11.96,7.11,11.98,7.11,12c-0.01,0.09-0.01,0.17,0.03,0.26c0,0,0,0,0,0c0,0,0,0,0,0
		c0.02,0.06,0.06,0.11,0.1,0.16l6.11,6.11c0.1,0.1,0.23,0.15,0.35,0.15s0.26-0.05,0.35-0.15c0.2-0.2,0.2-0.51,0-0.71l-5.26-5.26
		h12.71c0.28,0,0.5-0.22,0.5-0.5S21.79,11.57,21.51,11.57z"/>
</g>
</svg>
