<?xml version="1.0" encoding="utf-8"?>
<!-- Generator: Adobe Illustrator 24.0.0, SVG Export Plug-In . SVG Version: 6.00 Build 0)  -->
<svg version="1.1" id="Layer_1" xmlns="http://www.w3.org/2000/svg" xmlns:xlink="http://www.w3.org/1999/xlink" x="0px" y="0px"
	 viewBox="0 0 28 28" style="enable-background:new 0 0 28 28;" xml:space="preserve">
<style type="text/css">
	.st0{fill:#151515;}
</style>
<g>
	<path class="st0" d="M14,3.7C8.32,3.7,3.7,8.32,3.7,14S8.32,24.3,14,24.3S24.3,19.68,24.3,14S19.68,3.7,14,3.7z M5.14,14
		c0-4.88,3.97-8.86,8.86-8.86c2.25,0,4.31,0.85,5.87,2.25l-3.75,3.75c-0.15-0.16-0.3-0.31-0.44-0.44c-0.03-0.03-0.07-0.07-0.11-0.1
		c-0.14-0.13-0.27-0.24-0.38-0.33c-0.05-0.04-0.1-0.08-0.14-0.12c-0.05-0.04-0.1-0.07-0.12-0.09c-0.01-0.01-0.02-0.01-0.03-0.01
		l-0.12-0.03V9.02c0-0.16-0.06-0.31-0.17-0.41s-0.25-0.17-0.41-0.17c-0.32,0-0.58,0.26-0.58,0.58v0.67l-0.06-0.02l-0.16-0.05
		l-0.15-0.04c0,0,0,0,0,0h0l-1.12-0.3c-0.05-0.01-0.09,0.04-0.07,0.08l0.18,0.33c0.02,0.04,0.04,0.08,0.06,0.13
		c0.03,0.06,0.06,0.12,0.09,0.18c0.03,0.05,0.05,0.11,0.08,0.17c0.06,0.13,0.12,0.27,0.18,0.42c0.04,0.1,0.08,0.2,0.12,0.3
		c0.1,0.26,0.2,0.54,0.28,0.83c0.03,0.09,0.05,0.18,0.08,0.27l0.01,0.05c0.03,0.13,0.06,0.27,0.08,0.4
		c0.02,0.09,0.03,0.18,0.04,0.27c0.01,0.1,0.03,0.2,0.03,0.3c0.01,0.09,0.01,0.19,0.01,0.28c0,0.23-0.02,0.46-0.07,0.67
		c-0.01,0.03-0.02,0.07-0.03,0.1l-2.15,2.15c-0.01-0.01-0.02-0.02-0.03-0.02H8.06c-0.05,0-0.09,0.04-0.09,0.09v0.06
		c0,0.83,0.3,1.57,0.79,2.16l-1.37,1.37C6,18.31,5.14,16.25,5.14,14z M13.63,16.3v1.15h-1.47c-0.09,0-0.19-0.01-0.28-0.04L13,16.3
		H13.63z M14,22.86c-2.11,0-4.05-0.74-5.57-1.98L9.9,19.4c0.45,0.22,0.95,0.36,1.49,0.36h5.32c1.27,0,1.84-1.49,2.59-2.52
		c0.29-0.41,1-0.73,1.2-0.82c0.03-0.01,0.06-0.05,0.06-0.09v-0.66c0-0.06-0.06-0.1-0.12-0.09l-3.1,0.9c-0.02,0-0.03,0.01-0.04,0.03
		c-0.34,0.38-0.63,0.63-0.69,0.68c-0.19,0.16-0.43,0.25-0.68,0.25h-1.12V16.3h0.89c0.02,0,0.05-0.01,0.06-0.02l0.12-0.11
		c0.05-0.05,0.11-0.1,0.18-0.17c0.04-0.04,0.09-0.09,0.13-0.14c0.05-0.05,0.09-0.1,0.13-0.14c0.07-0.08,0.14-0.15,0.21-0.24
		c0.05-0.05,0.1-0.12,0.14-0.18c0.05-0.06,0.1-0.12,0.15-0.19c0.03-0.05,0.07-0.1,0.11-0.15c0.03-0.05,0.07-0.1,0.1-0.15
		c0.09-0.14,0.16-0.28,0.23-0.43c0.03-0.07,0.06-0.14,0.08-0.22c0.03-0.07,0.05-0.14,0.06-0.22c0.04-0.18,0.05-0.35,0.03-0.52
		c0-0.05-0.01-0.11-0.02-0.16v-0.01c0-0.04-0.01-0.08-0.02-0.11c-0.04-0.17-0.1-0.34-0.17-0.51c-0.03-0.06-0.05-0.12-0.08-0.18
		c-0.03-0.05-0.06-0.11-0.1-0.16l3.87-3.87c1.24,1.52,1.98,3.46,1.98,5.57C22.86,18.88,18.88,22.86,14,22.86z"/>
	<path class="st0" d="M11.53,15.04c0.03,0,0.06-0.01,0.08-0.04c0.04-0.05,0.07-0.11,0.1-0.17c0.24-0.4,0.45-0.82,0.52-1.14
		c0.18-0.77-0.2-2.01-0.65-3c-0.03-0.07-0.12-0.07-0.16-0.01l-2.65,4.15L8.72,14.9c-0.04,0.06,0,0.14,0.08,0.14H11.53z"/>
</g>
</svg>
