<?xml version="1.0" encoding="utf-8"?>
<!-- Generator: Adobe Illustrator 24.0.0, SVG Export Plug-In . SVG Version: 6.00 Build 0)  -->
<svg version="1.1" id="Layer_1" xmlns="http://www.w3.org/2000/svg" xmlns:xlink="http://www.w3.org/1999/xlink" x="0px" y="0px"
	 viewBox="0 0 28 28" style="enable-background:new 0 0 28 28;" xml:space="preserve">
<style type="text/css">
	.st0{fill:#151515;}
</style>
<g>
	<path class="st0" d="M3.2,5.57c0-0.56,0.2-1.04,0.59-1.43c0.39-0.39,0.87-0.59,1.43-0.59h8.61c0.56,0,1.04,0.2,1.43,0.59l8.94,8.94
		c0.39,0.39,0.59,0.87,0.59,1.43s-0.2,1.04-0.59,1.43l-8.61,8.61c-0.39,0.39-0.87,0.59-1.43,0.59s-1.04-0.2-1.43-0.59l-8.94-8.94
		C3.4,15.22,3.2,14.74,3.2,14.18V5.57z M6.49,6.84C6.1,7.23,5.9,7.71,5.9,8.27s0.2,1.04,0.59,1.43c0.39,0.39,0.87,0.59,1.43,0.59
		s1.04-0.2,1.43-0.59c0.39-0.39,0.59-0.87,0.59-1.43s-0.2-1.04-0.59-1.43C8.97,6.44,8.49,6.25,7.93,6.25S6.88,6.44,6.49,6.84z"/>
</g>
</svg>
